<svg width="39" height="39" xmlns="http://www.w3.org/2000/svg">
    <path d="M18.78 0h1.773c.06.013.12.033.182.037 1.687.085 3.332.394 4.936.922 3.095 1.02 5.76 2.721 8 5.084a18.976 18.976 0 0 1 3.29 4.74 18.969 18.969 0 0 1 1.893 6.89c.019.234.048.467.072.7v1.772c-.013.06-.034.121-.037.182a18.722 18.722 0 0 1-.922 4.936c-1.02 3.095-2.721 5.76-5.084 8.001a18.976 18.976 0 0 1-4.74 3.29 18.964 18.964 0 0 1-6.89 1.893c-.234.018-.467.047-.7.072h-1.734c-.055-.012-.11-.031-.165-.034a18.197 18.197 0 0 1-3.028-.4c-.466-.102-.926-.227-1.414-.347l.158-.262c.754-1.236 1.416-2.515 1.792-3.922.347-1.299.672-2.604 1.006-3.907.11-.425.216-.85.315-1.24.31.327.59.693.937.974 1.144.928 2.47 1.346 3.943 1.328 1.456-.019 2.834-.346 4.123-1.02 2.056-1.076 3.502-2.738 4.513-4.794 1.24-2.525 1.696-5.215 1.578-8.008-.062-1.47-.464-2.859-1.156-4.153-1.648-3.083-4.234-4.967-7.583-5.843-1.752-.458-3.533-.51-5.328-.318-1.815.194-3.55.662-5.176 1.5-2.399 1.238-4.24 3.043-5.465 5.455-1.012 1.995-1.415 4.107-1.157 6.339.14 1.209.443 2.366 1.042 3.434.648 1.155 1.556 2.03 2.787 2.549.507.213.87.036 1.017-.49.064-.228.119-.459.177-.689.068-.267.12-.539.206-.8.135-.407.048-.745-.233-1.064a5.044 5.044 0 0 1-1.169-2.39c-.22-1.1-.177-2.197.045-3.287.503-2.466 1.761-4.455 3.886-5.822 2.582-1.66 5.406-1.933 8.317-1.135 3.08.845 4.954 3.29 5.074 6.484.03.772-.013 1.55-.075 2.322a13.698 13.698 0 0 1-.962 4.082c-.506 1.245-1.177 2.384-2.227 3.253-1.03.854-2.202 1.245-3.543.989-1.454-.278-2.463-1.52-2.374-2.988.033-.543.183-1.085.33-1.613.367-1.314.778-2.616 1.143-3.93.23-.83.388-1.679.249-2.547-.154-.964-.593-1.738-1.553-2.102-.827-.315-1.643-.23-2.415.185-.946.51-1.536 1.33-1.895 2.316-.638 1.75-.511 3.486.136 5.206.034.09.053.202.032.293-.715 3.05-1.414 6.104-2.165 9.145-.44 1.78-.7 3.57-.62 5.406.002.06 0 .122 0 .203-.067-.025-.109-.037-.148-.055-3.38-1.538-6.107-3.847-8.162-6.937C1.792 27.151.753 24.14.48 20.865c-.02-.24-.049-.48-.074-.72v-1.772c.013-.06.03-.12.037-.182.092-.782.14-1.573.28-2.346.765-4.238 2.737-7.83 5.9-10.743C9.855 2.126 13.68.457 18.061.074c.24-.021.48-.05.72-.074" fill="#FFF" fill-rule="evenodd"/>
</svg>
