<svg width="40" height="40" xmlns="http://www.w3.org/2000/svg" xmlns:xlink="http://www.w3.org/1999/xlink">
    <defs>
        <path id="a" d="M0 .27h38.255v38.248H0z"/>
    </defs>
    <g fill="none" fill-rule="evenodd">
        <g transform="translate(.704 .014)">
            <mask id="b" fill="#fff">
                <use xlink:href="#a"/>
            </mask>
            <path d="M19.167 3.669c-2.775 0-5.55-.003-8.324 0-.874.002-1.737.092-2.568.39-3.026 1.082-4.855 3.688-4.86 6.976-.01 5.575-.019 11.15.014 16.726.005.832.124 1.702.389 2.488 1.027 3.043 3.667 4.87 6.95 4.876 5.574.011 11.148.019 16.722-.014.833-.004 1.703-.12 2.488-.385 3.033-1.02 4.87-3.64 4.882-6.908.02-5.613.014-11.225.002-16.838-.006-2.507-1.016-4.527-3.056-6.002-1.295-.937-2.767-1.313-4.352-1.31-2.762.004-5.525 0-8.287 0m9.306 34.85H9.805c-.121-.022-.241-.052-.363-.065-1.045-.115-2.068-.347-3.016-.795-4.107-1.942-6.32-5.194-6.384-9.743C-.038 22.24.02 16.563.025 10.887c0-1.838.406-3.59 1.34-5.176C3.474 2.137 6.63.308 10.779.286 16.354.256 21.93.272 27.505.287c.718.002 1.452.04 2.15.194 4.33.955 7.098 3.59 8.286 7.863.156.559.212 1.145.314 1.719v18.671c-.062.391-.103.787-.19 1.172-.974 4.333-3.596 7.111-7.877 8.3-.558.154-1.143.21-1.715.312" fill="#FFF" mask="url(#b)"/>
        </g>
        <path d="M19.825 12.958c-3.575.025-6.46 2.927-6.436 6.472.025 3.575 2.926 6.462 6.47 6.438 3.575-.025 6.462-2.928 6.437-6.473-.024-3.575-2.927-6.462-6.471-6.437m9.87 6.458c-.004 5.416-4.462 9.868-9.865 9.851-5.424-.016-9.868-4.477-9.84-9.876.027-5.417 4.441-9.825 9.846-9.833 5.408-.008 9.864 4.447 9.86 9.858M30.126 11.65c-1.368.01-2.507-1.118-2.507-2.48.002-1.352 1.11-2.463 2.471-2.476a2.494 2.494 0 0 1 2.506 2.478c0 1.347-1.119 2.47-2.47 2.478" fill="#FFF"/>
    </g>
</svg>
